<svg width="16" height="20" viewBox="0 0 16 20" fill="none" xmlns="http://www.w3.org/2000/svg">
<path fill-rule="evenodd" clip-rule="evenodd" d="M0.076938 14.947C0.256563 14.5877 0.693407 14.4421 1.05266 14.6217L8 18.0954L14.9473 14.6217C15.3066 14.4421 15.7434 14.5877 15.9231 14.947C16.1027 15.3062 15.9571 15.7431 15.5978 15.9227L8.32524 19.559C8.1205 19.6614 7.8795 19.6614 7.67476 19.559L0.402178 15.9227C0.0429278 15.7431 -0.102687 15.3062 0.076938 14.947Z" fill="#B4BBC5"/>
<path fill-rule="evenodd" clip-rule="evenodd" d="M0.076938 11.3107C0.256563 10.9515 0.693407 10.8059 1.05266 10.9855L8 14.4592L14.9473 10.9855C15.3066 10.8059 15.7434 10.9515 15.9231 11.3107C16.1027 11.67 15.9571 12.1068 15.5978 12.2865L8.32524 15.9228C8.1205 16.0251 7.8795 16.0251 7.67476 15.9228L0.402178 12.2865C0.0429278 12.1068 -0.102687 11.67 0.076938 11.3107Z" fill="#B4BBC5"/>
<path fill-rule="evenodd" clip-rule="evenodd" d="M0.076938 7.67464C0.256563 7.31539 0.693407 7.16977 1.05266 7.3494L8 10.8231L14.9473 7.3494C15.3066 7.16977 15.7434 7.31539 15.9231 7.67464C16.1027 8.03389 15.9571 8.47073 15.5978 8.65036L8.32524 12.2866C8.1205 12.389 7.8795 12.389 7.67476 12.2866L0.402178 8.65036C0.0429278 8.47073 -0.102687 8.03389 0.076938 7.67464Z" fill="#B4BBC5"/>
<path fill-rule="evenodd" clip-rule="evenodd" d="M7.67485 0.0767787C7.87959 -0.0255929 8.12058 -0.0255929 8.32532 0.0767787L15.5979 3.71307C15.8443 3.83626 15.9999 4.08808 15.9999 4.36355C15.9999 4.63901 15.8443 4.89084 15.5979 5.01403L8.32532 8.65032C8.12058 8.75269 7.87959 8.75269 7.67485 8.65032L0.402263 5.01403C0.155879 4.89084 0.000244141 4.63901 0.000244141 4.36355C0.000244141 4.08808 0.155879 3.83626 0.402263 3.71307L7.67485 0.0767787ZM2.3537 4.36355L8.00008 7.18674L13.6465 4.36355L8.00008 1.54036L2.3537 4.36355Z" fill="#B4BBC5"/>
</svg>
