<svg width="16" height="16" viewBox="0 0 16 16" fill="none" xmlns="http://www.w3.org/2000/svg">
<g clip-path="url(#clip0)">
<path d="M8.00002 16C3.60001 16 0 12.4 0 8.00002C0 3.60001 3.60001 0 8.00002 0C12.4 0 16 3.60001 16 8.00002C16 12.4 12.4 16 8.00002 16ZM8.00002 1.33334C4.33334 1.33334 1.33334 4.33334 1.33334 8.00002C1.33334 11.6667 4.33334 14.6667 8.00002 14.6667C11.6667 14.6667 14.6667 11.6667 14.6667 8.00002C14.6667 4.33334 11.6667 1.33334 8.00002 1.33334Z" fill="black"/>
<path d="M8.00004 8.66676C7.60004 8.66676 7.33337 8.40009 7.33337 8.00009V3.33342C7.33337 2.93342 7.60004 2.66675 8.00004 2.66675C8.40004 2.66675 8.66671 2.93342 8.66671 3.33342V8.00009C8.66671 8.40009 8.40004 8.66676 8.00004 8.66676Z" fill="black"/>
<path d="M10.6667 11.3333C10.4667 11.3333 10.3334 11.2666 10.2 11.1333L7.53337 8.46659C7.26671 8.19992 7.26671 7.79992 7.53337 7.53325C7.80004 7.26659 8.20004 7.26659 8.46671 7.53325L11.1334 10.1999C11.4 10.4666 11.4 10.8666 11.1334 11.1333C11 11.2666 10.8667 11.3333 10.6667 11.3333V11.3333Z" fill="black"/>
</g>
<defs>
<clipPath id="clip0">
<rect width="16" height="16" fill="white"/>
</clipPath>
</defs>
</svg>
